<svg width="3494" height="1512" viewBox="0 0 3494 1512" fill="none" xmlns="http://www.w3.org/2000/svg">
<g opacity="0.25">
<path d="M3067 113C3061.48 113 3057 117.477 3057 123V133C3057 138.523 3052.52 143 3047 143H3037C3031.48 143 3027 147.477 3027 153C3027 158.523 3031.48 163 3037 163H3047C3052.52 163 3057 167.477 3057 173V183C3057 188.523 3061.48 193 3067 193C3072.52 193 3077 188.523 3077 183V173C3077 167.477 3081.48 163 3087 163H3097C3102.52 163 3107 158.523 3107 153C3107 147.477 3102.52 143 3097 143H3087C3081.48 143 3077 138.523 3077 133V123C3077 117.477 3072.52 113 3067 113Z" fill="#4CC2FF"/>
<circle cx="2827" cy="153" r="10" fill="#4CC2FF"/>
<circle cx="3307" cy="153" r="10" fill="#4CC2FF"/>
<path d="M187 113C181.477 113 177 117.477 177 123V133C177 138.523 172.523 143 167 143H157C151.477 143 147 147.477 147 153C147 158.523 151.477 163 157 163H167C172.523 163 177 167.477 177 173V183C177 188.523 181.477 193 187 193C192.523 193 197 188.523 197 183V173C197 167.477 201.477 163 207 163H217C222.523 163 227 158.523 227 153C227 147.477 222.523 143 217 143H207C201.477 143 197 138.523 197 133V123C197 117.477 192.523 113 187 113Z" fill="#4CC2FF"/>
<path d="M667 113C661.477 113 657 117.477 657 123V133C657 138.523 652.523 143 647 143H637C631.477 143 627 147.477 627 153C627 158.523 631.477 163 637 163H647C652.523 163 657 167.477 657 173V183C657 188.523 661.477 193 667 193C672.523 193 677 188.523 677 183V173C677 167.477 681.477 163 687 163H697C702.523 163 707 158.523 707 153C707 147.477 702.523 143 697 143H687C681.477 143 677 138.523 677 133V123C677 117.477 672.523 113 667 113Z" fill="#4CC2FF"/>
<circle cx="427" cy="153" r="10" fill="#4CC2FF"/>
<path d="M1147 113C1141.48 113 1137 117.477 1137 123V133C1137 138.523 1132.52 143 1127 143H1117C1111.48 143 1107 147.477 1107 153C1107 158.523 1111.48 163 1117 163H1127C1132.52 163 1137 167.477 1137 173V183C1137 188.523 1141.48 193 1147 193C1152.52 193 1157 188.523 1157 183V173C1157 167.477 1161.48 163 1167 163H1177C1182.52 163 1187 158.523 1187 153C1187 147.477 1182.52 143 1177 143H1167C1161.48 143 1157 138.523 1157 133V123C1157 117.477 1152.52 113 1147 113Z" fill="#4CC2FF"/>
<circle cx="907" cy="153" r="10" fill="#4CC2FF"/>
<path d="M1627 113C1621.48 113 1617 117.477 1617 123V133C1617 138.523 1612.52 143 1607 143H1597C1591.48 143 1587 147.477 1587 153C1587 158.523 1591.48 163 1597 163H1607C1612.52 163 1617 167.477 1617 173V183C1617 188.523 1621.48 193 1627 193C1632.52 193 1637 188.523 1637 183V173C1637 167.477 1641.48 163 1647 163H1657C1662.52 163 1667 158.523 1667 153C1667 147.477 1662.52 143 1657 143H1647C1641.48 143 1637 138.523 1637 133V123C1637 117.477 1632.52 113 1627 113Z" fill="#4CC2FF"/>
<circle cx="1387" cy="153" r="10" fill="#4CC2FF"/>
<path d="M2107 113C2101.48 113 2097 117.477 2097 123V133C2097 138.523 2092.52 143 2087 143H2077C2071.48 143 2067 147.477 2067 153C2067 158.523 2071.48 163 2077 163H2087C2092.52 163 2097 167.477 2097 173V183C2097 188.523 2101.48 193 2107 193C2112.52 193 2117 188.523 2117 183V173C2117 167.477 2121.48 163 2127 163H2137C2142.52 163 2147 158.523 2147 153C2147 147.477 2142.52 143 2137 143H2127C2121.48 143 2117 138.523 2117 133V123C2117 117.477 2112.52 113 2107 113Z" fill="#4CC2FF"/>
<circle cx="1867" cy="153" r="10" fill="#4CC2FF"/>
<path d="M2587 113C2581.48 113 2577 117.477 2577 123V133C2577 138.523 2572.52 143 2567 143H2557C2551.48 143 2547 147.477 2547 153C2547 158.523 2551.48 163 2557 163H2567C2572.52 163 2577 167.477 2577 173V183C2577 188.523 2581.48 193 2587 193C2592.52 193 2597 188.523 2597 183V173C2597 167.477 2601.48 163 2607 163H2617C2622.52 163 2627 158.523 2627 153C2627 147.477 2622.52 143 2617 143H2607C2601.48 143 2597 138.523 2597 133V123C2597 117.477 2592.52 113 2587 113Z" fill="#4CC2FF"/>
<circle cx="2347" cy="153" r="10" fill="#4CC2FF"/>
<path d="M2827 353C2821.48 353 2817 357.477 2817 363V373C2817 378.523 2812.52 383 2807 383H2797C2791.48 383 2787 387.477 2787 393C2787 398.523 2791.48 403 2797 403H2807C2812.52 403 2817 407.477 2817 413V423C2817 428.523 2821.48 433 2827 433C2832.52 433 2837 428.523 2837 423V413C2837 407.477 2841.48 403 2847 403H2857C2862.52 403 2867 398.523 2867 393C2867 387.477 2862.52 383 2857 383H2847C2841.48 383 2837 378.523 2837 373V363C2837 357.477 2832.52 353 2827 353Z" fill="#4CC2FF"/>
<path d="M3067 593C3061.48 593 3057 597.477 3057 603V613C3057 618.523 3052.52 623 3047 623H3037C3031.48 623 3027 627.477 3027 633C3027 638.523 3031.48 643 3037 643H3047C3052.52 643 3057 647.477 3057 653V663C3057 668.523 3061.48 673 3067 673C3072.52 673 3077 668.523 3077 663V653C3077 647.477 3081.48 643 3087 643H3097C3102.52 643 3107 638.523 3107 633C3107 627.477 3102.52 623 3097 623H3087C3081.48 623 3077 618.523 3077 613V603C3077 597.477 3072.52 593 3067 593Z" fill="#4CC2FF"/>
<circle cx="3067" cy="393" r="10" fill="#4CC2FF"/>
<circle cx="2827" cy="633" r="10" fill="#4CC2FF"/>
<path d="M3307 353C3301.48 353 3297 357.477 3297 363V373C3297 378.523 3292.52 383 3287 383H3277C3271.48 383 3267 387.477 3267 393C3267 398.523 3271.48 403 3277 403H3287C3292.52 403 3297 407.477 3297 413V423C3297 428.523 3301.48 433 3307 433C3312.52 433 3317 428.523 3317 423V413C3317 407.477 3321.48 403 3327 403H3337C3342.52 403 3347 398.523 3347 393C3347 387.477 3342.52 383 3337 383H3327C3321.48 383 3317 378.523 3317 373V363C3317 357.477 3312.52 353 3307 353Z" fill="#4CC2FF"/>
<circle cx="3307" cy="633" r="10" fill="#4CC2FF"/>
<path d="M187 593C181.477 593 177 597.477 177 603V613C177 618.523 172.523 623 167 623H157C151.477 623 147 627.477 147 633C147 638.523 151.477 643 157 643H167C172.523 643 177 647.477 177 653V663C177 668.523 181.477 673 187 673C192.523 673 197 668.523 197 663V653C197 647.477 201.477 643 207 643H217C222.523 643 227 638.523 227 633C227 627.477 222.523 623 217 623H207C201.477 623 197 618.523 197 613V603C197 597.477 192.523 593 187 593Z" fill="#4CC2FF"/>
<circle cx="187" cy="393" r="10" fill="#4CC2FF"/>
<path d="M427 353C421.477 353 417 357.477 417 363V373C417 378.523 412.523 383 407 383H397C391.477 383 387 387.477 387 393C387 398.523 391.477 403 397 403H407C412.523 403 417 407.477 417 413V423C417 428.523 421.477 433 427 433C432.523 433 437 428.523 437 423V413C437 407.477 441.477 403 447 403H457C462.523 403 467 398.523 467 393C467 387.477 462.523 383 457 383H447C441.477 383 437 378.523 437 373V363C437 357.477 432.523 353 427 353Z" fill="#4CC2FF"/>
<path d="M667 593C661.477 593 657 597.477 657 603V613C657 618.523 652.523 623 647 623H637C631.477 623 627 627.477 627 633C627 638.523 631.477 643 637 643H647C652.523 643 657 647.477 657 653V663C657 668.523 661.477 673 667 673C672.523 673 677 668.523 677 663V653C677 647.477 681.477 643 687 643H697C702.523 643 707 638.523 707 633C707 627.477 702.523 623 697 623H687C681.477 623 677 618.523 677 613V603C677 597.477 672.523 593 667 593Z" fill="#4CC2FF"/>
<circle cx="667" cy="393" r="10" fill="#4CC2FF"/>
<circle cx="427" cy="633" r="10" fill="#4CC2FF"/>
<path d="M907 353C901.477 353 897 357.477 897 363V373C897 378.523 892.523 383 887 383H877C871.477 383 867 387.477 867 393C867 398.523 871.477 403 877 403H887C892.523 403 897 407.477 897 413V423C897 428.523 901.477 433 907 433C912.523 433 917 428.523 917 423V413C917 407.477 921.477 403 927 403H937C942.523 403 947 398.523 947 393C947 387.477 942.523 383 937 383H927C921.477 383 917 378.523 917 373V363C917 357.477 912.523 353 907 353Z" fill="#4CC2FF"/>
<path d="M1147 593C1141.48 593 1137 597.477 1137 603V613C1137 618.523 1132.52 623 1127 623H1117C1111.48 623 1107 627.477 1107 633C1107 638.523 1111.48 643 1117 643H1127C1132.52 643 1137 647.477 1137 653V663C1137 668.523 1141.48 673 1147 673C1152.52 673 1157 668.523 1157 663V653C1157 647.477 1161.48 643 1167 643H1177C1182.52 643 1187 638.523 1187 633C1187 627.477 1182.52 623 1177 623H1167C1161.48 623 1157 618.523 1157 613V603C1157 597.477 1152.52 593 1147 593Z" fill="#4CC2FF"/>
<circle cx="1147" cy="393" r="10" fill="#4CC2FF"/>
<circle cx="907" cy="633" r="10" fill="#4CC2FF"/>
<path d="M1387 353C1381.48 353 1377 357.477 1377 363V373C1377 378.523 1372.52 383 1367 383H1357C1351.48 383 1347 387.477 1347 393C1347 398.523 1351.48 403 1357 403H1367C1372.52 403 1377 407.477 1377 413V423C1377 428.523 1381.48 433 1387 433C1392.52 433 1397 428.523 1397 423V413C1397 407.477 1401.48 403 1407 403H1417C1422.52 403 1427 398.523 1427 393C1427 387.477 1422.52 383 1417 383H1407C1401.48 383 1397 378.523 1397 373V363C1397 357.477 1392.52 353 1387 353Z" fill="#4CC2FF"/>
<path d="M1627 593C1621.48 593 1617 597.477 1617 603V613C1617 618.523 1612.52 623 1607 623H1597C1591.48 623 1587 627.477 1587 633C1587 638.523 1591.48 643 1597 643H1607C1612.52 643 1617 647.477 1617 653V663C1617 668.523 1621.48 673 1627 673C1632.52 673 1637 668.523 1637 663V653C1637 647.477 1641.48 643 1647 643H1657C1662.52 643 1667 638.523 1667 633C1667 627.477 1662.52 623 1657 623H1647C1641.48 623 1637 618.523 1637 613V603C1637 597.477 1632.52 593 1627 593Z" fill="#4CC2FF"/>
<circle cx="1627" cy="393" r="10" fill="#4CC2FF"/>
<circle cx="1387" cy="633" r="10" fill="#4CC2FF"/>
<path d="M1867 353C1861.48 353 1857 357.477 1857 363V373C1857 378.523 1852.52 383 1847 383H1837C1831.48 383 1827 387.477 1827 393C1827 398.523 1831.48 403 1837 403H1847C1852.52 403 1857 407.477 1857 413V423C1857 428.523 1861.48 433 1867 433C1872.52 433 1877 428.523 1877 423V413C1877 407.477 1881.48 403 1887 403H1897C1902.52 403 1907 398.523 1907 393C1907 387.477 1902.52 383 1897 383H1887C1881.48 383 1877 378.523 1877 373V363C1877 357.477 1872.52 353 1867 353Z" fill="#4CC2FF"/>
<path d="M2107 593C2101.48 593 2097 597.477 2097 603V613C2097 618.523 2092.52 623 2087 623H2077C2071.48 623 2067 627.477 2067 633C2067 638.523 2071.48 643 2077 643H2087C2092.52 643 2097 647.477 2097 653V663C2097 668.523 2101.48 673 2107 673C2112.52 673 2117 668.523 2117 663V653C2117 647.477 2121.48 643 2127 643H2137C2142.52 643 2147 638.523 2147 633C2147 627.477 2142.52 623 2137 623H2127C2121.48 623 2117 618.523 2117 613V603C2117 597.477 2112.52 593 2107 593Z" fill="#4CC2FF"/>
<circle cx="2107" cy="393" r="10" fill="#4CC2FF"/>
<circle cx="1867" cy="633" r="10" fill="#4CC2FF"/>
<path d="M2347 353C2341.48 353 2337 357.477 2337 363V373C2337 378.523 2332.52 383 2327 383H2317C2311.48 383 2307 387.477 2307 393C2307 398.523 2311.48 403 2317 403H2327C2332.52 403 2337 407.477 2337 413V423C2337 428.523 2341.48 433 2347 433C2352.52 433 2357 428.523 2357 423V413C2357 407.477 2361.48 403 2367 403H2377C2382.52 403 2387 398.523 2387 393C2387 387.477 2382.52 383 2377 383H2367C2361.48 383 2357 378.523 2357 373V363C2357 357.477 2352.52 353 2347 353Z" fill="#4CC2FF"/>
<path d="M2587 593C2581.48 593 2577 597.477 2577 603V613C2577 618.523 2572.52 623 2567 623H2557C2551.48 623 2547 627.477 2547 633C2547 638.523 2551.48 643 2557 643H2567C2572.52 643 2577 647.477 2577 653V663C2577 668.523 2581.48 673 2587 673C2592.52 673 2597 668.523 2597 663V653C2597 647.477 2601.48 643 2607 643H2617C2622.52 643 2627 638.523 2627 633C2627 627.477 2622.52 623 2617 623H2607C2601.48 623 2597 618.523 2597 613V603C2597 597.477 2592.52 593 2587 593Z" fill="#4CC2FF"/>
<circle cx="2587" cy="393" r="10" fill="#4CC2FF"/>
<circle cx="2347" cy="633" r="10" fill="#4CC2FF"/>
<path d="M2827 833C2821.48 833 2817 837.477 2817 843V853C2817 858.523 2812.52 863 2807 863H2797C2791.48 863 2787 867.477 2787 873C2787 878.523 2791.48 883 2797 883H2807C2812.52 883 2817 887.477 2817 893V903C2817 908.523 2821.48 913 2827 913C2832.52 913 2837 908.523 2837 903V893C2837 887.477 2841.48 883 2847 883H2857C2862.52 883 2867 878.523 2867 873C2867 867.477 2862.52 863 2857 863H2847C2841.48 863 2837 858.523 2837 853V843C2837 837.477 2832.52 833 2827 833Z" fill="#4CC2FF"/>
<path d="M3067 1073C3061.48 1073 3057 1077.48 3057 1083V1093C3057 1098.52 3052.52 1103 3047 1103H3037C3031.48 1103 3027 1107.48 3027 1113C3027 1118.52 3031.48 1123 3037 1123H3047C3052.52 1123 3057 1127.48 3057 1133V1143C3057 1148.52 3061.48 1153 3067 1153C3072.52 1153 3077 1148.52 3077 1143V1133C3077 1127.48 3081.48 1123 3087 1123H3097C3102.52 1123 3107 1118.52 3107 1113C3107 1107.48 3102.52 1103 3097 1103H3087C3081.48 1103 3077 1098.52 3077 1093V1083C3077 1077.48 3072.52 1073 3067 1073Z" fill="#4CC2FF"/>
<circle cx="3067" cy="873" r="10" fill="#4CC2FF"/>
<circle cx="2827" cy="1113" r="10" fill="#4CC2FF"/>
<path d="M3307 833C3301.48 833 3297 837.477 3297 843V853C3297 858.523 3292.52 863 3287 863H3277C3271.48 863 3267 867.477 3267 873C3267 878.523 3271.48 883 3277 883H3287C3292.52 883 3297 887.477 3297 893V903C3297 908.523 3301.48 913 3307 913C3312.52 913 3317 908.523 3317 903V893C3317 887.477 3321.48 883 3327 883H3337C3342.52 883 3347 878.523 3347 873C3347 867.477 3342.52 863 3337 863H3327C3321.48 863 3317 858.523 3317 853V843C3317 837.477 3312.52 833 3307 833Z" fill="#4CC2FF"/>
<circle cx="3307" cy="1113" r="10" fill="#4CC2FF"/>
<path d="M187 1073C181.477 1073 177 1077.48 177 1083V1093C177 1098.52 172.523 1103 167 1103H157C151.477 1103 147 1107.48 147 1113C147 1118.52 151.477 1123 157 1123H167C172.523 1123 177 1127.48 177 1133V1143C177 1148.52 181.477 1153 187 1153C192.523 1153 197 1148.52 197 1143V1133C197 1127.48 201.477 1123 207 1123H217C222.523 1123 227 1118.52 227 1113C227 1107.48 222.523 1103 217 1103H207C201.477 1103 197 1098.52 197 1093V1083C197 1077.48 192.523 1073 187 1073Z" fill="#4CC2FF"/>
<circle cx="187" cy="873" r="10" fill="#4CC2FF"/>
<path d="M427 833C421.477 833 417 837.477 417 843V853C417 858.523 412.523 863 407 863H397C391.477 863 387 867.477 387 873C387 878.523 391.477 883 397 883H407C412.523 883 417 887.477 417 893V903C417 908.523 421.477 913 427 913C432.523 913 437 908.523 437 903V893C437 887.477 441.477 883 447 883H457C462.523 883 467 878.523 467 873C467 867.477 462.523 863 457 863H447C441.477 863 437 858.523 437 853V843C437 837.477 432.523 833 427 833Z" fill="#4CC2FF"/>
<path d="M667 1073C661.477 1073 657 1077.48 657 1083V1093C657 1098.52 652.523 1103 647 1103H637C631.477 1103 627 1107.48 627 1113C627 1118.52 631.477 1123 637 1123H647C652.523 1123 657 1127.48 657 1133V1143C657 1148.52 661.477 1153 667 1153C672.523 1153 677 1148.52 677 1143V1133C677 1127.48 681.477 1123 687 1123H697C702.523 1123 707 1118.52 707 1113C707 1107.48 702.523 1103 697 1103H687C681.477 1103 677 1098.52 677 1093V1083C677 1077.48 672.523 1073 667 1073Z" fill="#4CC2FF"/>
<circle cx="667" cy="873" r="10" fill="#4CC2FF"/>
<circle cx="427" cy="1113" r="10" fill="#4CC2FF"/>
<path d="M907 833C901.477 833 897 837.477 897 843V853C897 858.523 892.523 863 887 863H877C871.477 863 867 867.477 867 873C867 878.523 871.477 883 877 883H887C892.523 883 897 887.477 897 893V903C897 908.523 901.477 913 907 913C912.523 913 917 908.523 917 903V893C917 887.477 921.477 883 927 883H937C942.523 883 947 878.523 947 873C947 867.477 942.523 863 937 863H927C921.477 863 917 858.523 917 853V843C917 837.477 912.523 833 907 833Z" fill="#4CC2FF"/>
<path d="M1147 1073C1141.48 1073 1137 1077.48 1137 1083V1093C1137 1098.52 1132.52 1103 1127 1103H1117C1111.48 1103 1107 1107.48 1107 1113C1107 1118.52 1111.48 1123 1117 1123H1127C1132.52 1123 1137 1127.48 1137 1133V1143C1137 1148.52 1141.48 1153 1147 1153C1152.52 1153 1157 1148.52 1157 1143V1133C1157 1127.48 1161.48 1123 1167 1123H1177C1182.52 1123 1187 1118.52 1187 1113C1187 1107.48 1182.52 1103 1177 1103H1167C1161.48 1103 1157 1098.52 1157 1093V1083C1157 1077.48 1152.52 1073 1147 1073Z" fill="#4CC2FF"/>
<circle cx="1147" cy="873" r="10" fill="#4CC2FF"/>
<circle cx="907" cy="1113" r="10" fill="#4CC2FF"/>
<path d="M1387 833C1381.48 833 1377 837.477 1377 843V853C1377 858.523 1372.52 863 1367 863H1357C1351.48 863 1347 867.477 1347 873C1347 878.523 1351.48 883 1357 883H1367C1372.52 883 1377 887.477 1377 893V903C1377 908.523 1381.48 913 1387 913C1392.52 913 1397 908.523 1397 903V893C1397 887.477 1401.48 883 1407 883H1417C1422.52 883 1427 878.523 1427 873C1427 867.477 1422.52 863 1417 863H1407C1401.48 863 1397 858.523 1397 853V843C1397 837.477 1392.52 833 1387 833Z" fill="#4CC2FF"/>
<path d="M1627 1073C1621.48 1073 1617 1077.48 1617 1083V1093C1617 1098.52 1612.52 1103 1607 1103H1597C1591.48 1103 1587 1107.48 1587 1113C1587 1118.52 1591.48 1123 1597 1123H1607C1612.52 1123 1617 1127.48 1617 1133V1143C1617 1148.52 1621.48 1153 1627 1153C1632.52 1153 1637 1148.52 1637 1143V1133C1637 1127.48 1641.48 1123 1647 1123H1657C1662.52 1123 1667 1118.52 1667 1113C1667 1107.48 1662.52 1103 1657 1103H1647C1641.48 1103 1637 1098.52 1637 1093V1083C1637 1077.48 1632.52 1073 1627 1073Z" fill="#4CC2FF"/>
<circle cx="1627" cy="873" r="10" fill="#4CC2FF"/>
<circle cx="1387" cy="1113" r="10" fill="#4CC2FF"/>
<path d="M1867 833C1861.48 833 1857 837.477 1857 843V853C1857 858.523 1852.52 863 1847 863H1837C1831.48 863 1827 867.477 1827 873C1827 878.523 1831.48 883 1837 883H1847C1852.52 883 1857 887.477 1857 893V903C1857 908.523 1861.48 913 1867 913C1872.52 913 1877 908.523 1877 903V893C1877 887.477 1881.48 883 1887 883H1897C1902.52 883 1907 878.523 1907 873C1907 867.477 1902.52 863 1897 863H1887C1881.48 863 1877 858.523 1877 853V843C1877 837.477 1872.52 833 1867 833Z" fill="#4CC2FF"/>
<path d="M2107 1073C2101.48 1073 2097 1077.48 2097 1083V1093C2097 1098.52 2092.52 1103 2087 1103H2077C2071.48 1103 2067 1107.48 2067 1113C2067 1118.52 2071.48 1123 2077 1123H2087C2092.52 1123 2097 1127.48 2097 1133V1143C2097 1148.52 2101.48 1153 2107 1153C2112.52 1153 2117 1148.52 2117 1143V1133C2117 1127.48 2121.48 1123 2127 1123H2137C2142.52 1123 2147 1118.52 2147 1113C2147 1107.48 2142.52 1103 2137 1103H2127C2121.48 1103 2117 1098.52 2117 1093V1083C2117 1077.48 2112.52 1073 2107 1073Z" fill="#4CC2FF"/>
<circle cx="2107" cy="873" r="10" fill="#4CC2FF"/>
<circle cx="1867" cy="1113" r="10" fill="#4CC2FF"/>
<path d="M2347 833C2341.48 833 2337 837.477 2337 843V853C2337 858.523 2332.52 863 2327 863H2317C2311.48 863 2307 867.477 2307 873C2307 878.523 2311.48 883 2317 883H2327C2332.52 883 2337 887.477 2337 893V903C2337 908.523 2341.48 913 2347 913C2352.52 913 2357 908.523 2357 903V893C2357 887.477 2361.48 883 2367 883H2377C2382.52 883 2387 878.523 2387 873C2387 867.477 2382.52 863 2377 863H2367C2361.48 863 2357 858.523 2357 853V843C2357 837.477 2352.52 833 2347 833Z" fill="#4CC2FF"/>
<path d="M2587 1073C2581.48 1073 2577 1077.48 2577 1083V1093C2577 1098.52 2572.52 1103 2567 1103H2557C2551.48 1103 2547 1107.48 2547 1113C2547 1118.52 2551.48 1123 2557 1123H2567C2572.52 1123 2577 1127.48 2577 1133V1143C2577 1148.52 2581.48 1153 2587 1153C2592.52 1153 2597 1148.52 2597 1143V1133C2597 1127.48 2601.48 1123 2607 1123H2617C2622.52 1123 2627 1118.52 2627 1113C2627 1107.48 2622.52 1103 2617 1103H2607C2601.48 1103 2597 1098.52 2597 1093V1083C2597 1077.48 2592.52 1073 2587 1073Z" fill="#4CC2FF"/>
<circle cx="2587" cy="873" r="10" fill="#4CC2FF"/>
<circle cx="2347" cy="1113" r="10" fill="#4CC2FF"/>
<path d="M2827 1313C2821.48 1313 2817 1317.48 2817 1323V1333C2817 1338.52 2812.52 1343 2807 1343H2797C2791.48 1343 2787 1347.48 2787 1353C2787 1358.52 2791.48 1363 2797 1363H2807C2812.52 1363 2817 1367.48 2817 1373V1383C2817 1388.52 2821.48 1393 2827 1393C2832.52 1393 2837 1388.52 2837 1383V1373C2837 1367.48 2841.48 1363 2847 1363H2857C2862.52 1363 2867 1358.52 2867 1353C2867 1347.48 2862.52 1343 2857 1343H2847C2841.48 1343 2837 1338.52 2837 1333V1323C2837 1317.48 2832.52 1313 2827 1313Z" fill="#4CC2FF"/>
<circle cx="3067" cy="1353" r="10" fill="#4CC2FF"/>
<path d="M3307 1313C3301.48 1313 3297 1317.48 3297 1323V1333C3297 1338.52 3292.52 1343 3287 1343H3277C3271.48 1343 3267 1347.48 3267 1353C3267 1358.52 3271.48 1363 3277 1363H3287C3292.52 1363 3297 1367.48 3297 1373V1383C3297 1388.52 3301.48 1393 3307 1393C3312.52 1393 3317 1388.52 3317 1383V1373C3317 1367.48 3321.48 1363 3327 1363H3337C3342.52 1363 3347 1358.52 3347 1353C3347 1347.48 3342.52 1343 3337 1343H3327C3321.48 1343 3317 1338.52 3317 1333V1323C3317 1317.48 3312.52 1313 3307 1313Z" fill="#4CC2FF"/>
<circle cx="187" cy="1353" r="10" fill="#4CC2FF"/>
<path d="M427 1313C421.477 1313 417 1317.48 417 1323V1333C417 1338.52 412.523 1343 407 1343H397C391.477 1343 387 1347.48 387 1353C387 1358.52 391.477 1363 397 1363H407C412.523 1363 417 1367.48 417 1373V1383C417 1388.52 421.477 1393 427 1393C432.523 1393 437 1388.52 437 1383V1373C437 1367.48 441.477 1363 447 1363H457C462.523 1363 467 1358.52 467 1353C467 1347.48 462.523 1343 457 1343H447C441.477 1343 437 1338.52 437 1333V1323C437 1317.48 432.523 1313 427 1313Z" fill="#4CC2FF"/>
<circle cx="667" cy="1353" r="10" fill="#4CC2FF"/>
<path d="M907 1313C901.477 1313 897 1317.48 897 1323V1333C897 1338.52 892.523 1343 887 1343H877C871.477 1343 867 1347.48 867 1353C867 1358.52 871.477 1363 877 1363H887C892.523 1363 897 1367.48 897 1373V1383C897 1388.52 901.477 1393 907 1393C912.523 1393 917 1388.52 917 1383V1373C917 1367.48 921.477 1363 927 1363H937C942.523 1363 947 1358.52 947 1353C947 1347.48 942.523 1343 937 1343H927C921.477 1343 917 1338.52 917 1333V1323C917 1317.48 912.523 1313 907 1313Z" fill="#4CC2FF"/>
<circle cx="1147" cy="1353" r="10" fill="#4CC2FF"/>
<path d="M1387 1313C1381.48 1313 1377 1317.48 1377 1323V1333C1377 1338.52 1372.52 1343 1367 1343H1357C1351.48 1343 1347 1347.48 1347 1353C1347 1358.52 1351.48 1363 1357 1363H1367C1372.52 1363 1377 1367.48 1377 1373V1383C1377 1388.52 1381.48 1393 1387 1393C1392.52 1393 1397 1388.52 1397 1383V1373C1397 1367.48 1401.48 1363 1407 1363H1417C1422.52 1363 1427 1358.52 1427 1353C1427 1347.48 1422.52 1343 1417 1343H1407C1401.48 1343 1397 1338.52 1397 1333V1323C1397 1317.48 1392.52 1313 1387 1313Z" fill="#4CC2FF"/>
<circle cx="1627" cy="1353" r="10" fill="#4CC2FF"/>
<path d="M1867 1313C1861.48 1313 1857 1317.48 1857 1323V1333C1857 1338.52 1852.52 1343 1847 1343H1837C1831.48 1343 1827 1347.48 1827 1353C1827 1358.52 1831.48 1363 1837 1363H1847C1852.52 1363 1857 1367.48 1857 1373V1383C1857 1388.52 1861.48 1393 1867 1393C1872.52 1393 1877 1388.52 1877 1383V1373C1877 1367.48 1881.48 1363 1887 1363H1897C1902.52 1363 1907 1358.52 1907 1353C1907 1347.48 1902.52 1343 1897 1343H1887C1881.48 1343 1877 1338.52 1877 1333V1323C1877 1317.48 1872.52 1313 1867 1313Z" fill="#4CC2FF"/>
<circle cx="2107" cy="1353" r="10" fill="#4CC2FF"/>
<path d="M2347 1313C2341.48 1313 2337 1317.48 2337 1323V1333C2337 1338.52 2332.52 1343 2327 1343H2317C2311.48 1343 2307 1347.48 2307 1353C2307 1358.52 2311.48 1363 2317 1363H2327C2332.52 1363 2337 1367.48 2337 1373V1383C2337 1388.52 2341.48 1393 2347 1393C2352.52 1393 2357 1388.52 2357 1383V1373C2357 1367.48 2361.48 1363 2367 1363H2377C2382.52 1363 2387 1358.52 2387 1353C2387 1347.48 2382.52 1343 2377 1343H2367C2361.48 1343 2357 1338.52 2357 1333V1323C2357 1317.48 2352.52 1313 2347 1313Z" fill="#4CC2FF"/>
<circle cx="2587" cy="1353" r="10" fill="#4CC2FF"/>
</g>
</svg>
