<svg width="3494" height="1512" viewBox="0 0 3494 1512" fill="none" xmlns="http://www.w3.org/2000/svg">
<g opacity="0.25">
<path d="M3425.52 1460.12C3420.05 1460.84 3416.19 1465.87 3416.91 1471.34L3418.22 1481.26C3418.94 1486.73 3415.09 1491.75 3409.61 1492.48L3399.7 1493.78C3394.22 1494.5 3390.37 1499.52 3391.09 1505C3391.81 1510.48 3396.83 1514.33 3402.31 1513.61L3412.22 1512.3C3417.7 1511.58 3422.72 1515.44 3423.44 1520.91L3424.75 1530.83C3425.47 1536.3 3430.49 1540.16 3435.96 1539.44C3441.44 1538.72 3445.29 1533.69 3444.57 1528.22L3443.27 1518.3C3442.55 1512.83 3446.4 1507.8 3451.88 1507.08L3461.79 1505.78C3467.27 1505.06 3471.12 1500.03 3470.4 1494.56C3469.68 1489.08 3464.66 1485.23 3459.18 1485.95L3449.27 1487.25C3443.79 1487.98 3438.77 1484.12 3438.05 1478.64L3436.74 1468.73C3436.02 1463.25 3431 1459.4 3425.52 1460.12Z" fill="#4CC2FF"/>
<path d="M112.931 201.736C107.455 202.457 103.601 207.48 104.322 212.955L105.627 222.87C106.348 228.346 102.493 233.369 97.0178 234.09L87.1033 235.395C81.6277 236.116 77.7732 241.139 78.4941 246.615C79.215 252.09 84.2382 255.945 89.7138 255.224L99.6283 253.919C105.104 253.198 110.127 257.052 110.848 262.528L112.153 272.442C112.874 277.918 117.897 281.772 123.373 281.051C128.849 280.33 132.703 275.307 131.982 269.832L130.677 259.917C129.956 254.442 133.81 249.418 139.286 248.697L149.201 247.392C154.676 246.671 158.531 241.648 157.81 236.173C157.089 230.697 152.066 226.842 146.59 227.563L136.676 228.869C131.2 229.589 126.177 225.735 125.456 220.259L124.151 210.345C123.43 204.869 118.406 201.015 112.931 201.736Z" fill="#4CC2FF"/>
<circle cx="86.8256" cy="3.4468" r="10" transform="rotate(-7.5 86.8256 3.4468)" fill="#4CC2FF"/>
<path d="M319.551 -67.5373C314.076 -66.8164 310.221 -61.7932 310.942 -56.3176L312.247 -46.4031C312.968 -40.9275 309.114 -35.9043 303.638 -35.1834L293.724 -33.8781C288.248 -33.1573 284.394 -28.134 285.115 -22.6584C285.835 -17.1828 290.859 -13.3284 296.334 -14.0492L306.249 -15.3545C311.724 -16.0754 316.748 -12.2209 317.468 -6.74532L318.774 3.16913C319.495 8.64473 324.518 12.4992 329.993 11.7783C335.469 11.0574 339.323 6.03421 338.603 0.558605L337.297 -9.35584C336.576 -14.8314 340.431 -19.8547 345.906 -20.5756L355.821 -21.8808C361.297 -22.6017 365.151 -27.6249 364.43 -33.1005C363.709 -38.5761 358.686 -42.4306 353.21 -41.7097L343.296 -40.4044C337.82 -39.6836 332.797 -43.538 332.076 -49.0136L330.771 -58.9281C330.05 -64.4037 325.027 -68.2581 319.551 -67.5373Z" fill="#4CC2FF"/>
<path d="M588.824 139.083C583.349 139.804 579.494 144.827 580.215 150.303L581.52 160.217C582.241 165.693 578.387 170.716 572.911 171.437L562.997 172.742C557.521 173.463 553.667 178.486 554.388 183.962C555.108 189.438 560.132 193.292 565.607 192.571L575.522 191.266C580.997 190.545 586.021 194.4 586.741 199.875L588.047 209.79C588.768 215.265 593.791 219.12 599.266 218.399C604.742 217.678 608.597 212.655 607.876 207.179L606.57 197.265C605.85 191.789 609.704 186.766 615.18 186.045L625.094 184.74C630.57 184.019 634.424 178.996 633.703 173.52C632.982 168.044 627.959 164.19 622.483 164.911L612.569 166.216C607.093 166.937 602.07 163.082 601.349 157.607L600.044 147.692C599.323 142.217 594.3 138.362 588.824 139.083Z" fill="#4CC2FF"/>
<circle cx="356.099" cy="210.067" r="10" transform="rotate(-7.5 356.099 210.067)" fill="#4CC2FF"/>
<path d="M1064.72 76.4306C1059.24 77.1515 1055.39 82.1747 1056.11 87.6503L1057.41 97.5648C1058.13 103.04 1054.28 108.064 1048.8 108.784L1038.89 110.09C1033.41 110.811 1029.56 115.834 1030.28 121.309C1031 126.785 1036.03 130.64 1041.5 129.919L1051.42 128.613C1056.89 127.893 1061.91 131.747 1062.63 137.223L1063.94 147.137C1064.66 152.613 1069.68 156.467 1075.16 155.746C1080.64 155.025 1084.49 150.002 1083.77 144.527L1082.46 134.612C1081.74 129.136 1085.6 124.113 1091.07 123.392L1100.99 122.087C1106.46 121.366 1110.32 116.343 1109.6 110.867C1108.88 105.392 1103.85 101.537 1098.38 102.258L1088.46 103.563C1082.99 104.284 1077.96 100.43 1077.24 94.9543L1075.94 85.0398C1075.22 79.5642 1070.19 75.7097 1064.72 76.4306Z" fill="#4CC2FF"/>
<circle cx="831.992" cy="147.415" r="10" transform="rotate(-7.5 831.992 147.415)" fill="#4CC2FF"/>
<path d="M1540.61 13.7781C1535.14 14.4989 1531.28 19.5222 1532 24.9978L1533.31 34.9122C1534.03 40.3878 1530.17 45.4111 1524.7 46.1319L1514.78 47.4372C1509.31 48.1581 1505.45 53.1813 1506.17 58.6569C1506.9 64.1325 1511.92 67.987 1517.39 67.2661L1527.31 65.9608C1532.78 65.24 1537.81 69.0944 1538.53 74.57L1539.83 84.4845C1540.55 89.9601 1545.58 93.8145 1551.05 93.0937C1556.53 92.3728 1560.38 87.3495 1559.66 81.8739L1558.36 71.9595C1557.64 66.4839 1561.49 61.4607 1566.97 60.7398L1576.88 59.4345C1582.36 58.7136 1586.21 53.6904 1585.49 48.2148C1584.77 42.7392 1579.75 38.8848 1574.27 39.6056L1564.36 40.9109C1558.88 41.6318 1553.86 37.7773 1553.14 32.3017L1551.83 22.3873C1551.11 16.9117 1546.09 13.0572 1540.61 13.7781Z" fill="#4CC2FF"/>
<circle cx="1307.89" cy="84.7621" r="10" transform="rotate(-7.5 1307.89 84.7621)" fill="#4CC2FF"/>
<path d="M2016.5 -48.8745C2011.03 -48.1536 2007.17 -43.1304 2007.9 -37.6548L2009.2 -27.7404C2009.92 -22.2648 2006.07 -17.2415 2000.59 -16.5207L1990.68 -15.2154C1985.2 -14.4945 1981.35 -9.47128 1982.07 -3.99568C1982.79 1.47992 1987.81 5.33438 1993.29 4.61351L2003.2 3.30824C2008.68 2.58737 2013.7 6.44183 2014.42 11.9174L2015.73 21.8319C2016.45 27.3075 2021.47 31.1619 2026.95 30.4411C2032.42 29.7202 2036.28 24.697 2035.56 19.2214L2034.25 9.30691C2033.53 3.83131 2037.38 -1.19193 2042.86 -1.9128L2052.77 -3.21806C2058.25 -3.93894 2062.1 -8.96218 2061.38 -14.4378C2060.66 -19.9134 2055.64 -23.7678 2050.16 -23.047L2040.25 -21.7417C2034.77 -21.0208 2029.75 -24.8753 2029.03 -30.3509L2027.72 -40.2653C2027 -45.7409 2021.98 -49.5954 2016.5 -48.8745Z" fill="#4CC2FF"/>
<circle cx="1783.78" cy="22.1096" r="10" transform="rotate(-7.5 1783.78 22.1096)" fill="#4CC2FF"/>
<path d="M2761.67 95.0934C2756.2 95.8143 2752.34 100.838 2753.06 106.313L2754.37 116.228C2755.09 121.703 2751.23 126.726 2745.76 127.447L2735.84 128.753C2730.37 129.473 2726.51 134.497 2727.23 139.972C2727.96 145.448 2732.98 149.302 2738.45 148.581L2748.37 147.276C2753.84 146.555 2758.87 150.41 2759.59 155.885L2760.89 165.8C2761.61 171.275 2766.64 175.13 2772.11 174.409C2777.59 173.688 2781.44 168.665 2780.72 163.189L2779.42 153.275C2778.7 147.799 2782.55 142.776 2788.03 142.055L2797.94 140.75C2803.42 140.029 2807.27 135.006 2806.55 129.53C2805.83 124.055 2800.81 120.2 2795.33 120.921L2785.42 122.226C2779.94 122.947 2774.92 119.093 2774.2 113.617L2772.89 103.703C2772.17 98.227 2767.15 94.3725 2761.67 95.0934Z" fill="#4CC2FF"/>
<path d="M3030.94 301.714C3025.47 302.435 3021.61 307.458 3022.34 312.934L3023.64 322.848C3024.36 328.324 3020.51 333.347 3015.03 334.068L3005.12 335.373C2999.64 336.094 2995.79 341.117 2996.51 346.593C2997.23 352.068 3002.25 355.923 3007.73 355.202L3017.64 353.897C3023.12 353.176 3028.14 357.03 3028.86 362.506L3030.17 372.42C3030.89 377.896 3035.91 381.75 3041.39 381.029C3046.86 380.309 3050.72 375.285 3050 369.81L3048.69 359.895C3047.97 354.42 3051.82 349.396 3057.3 348.676L3067.21 347.37C3072.69 346.649 3076.54 341.626 3075.82 336.151C3075.1 330.675 3070.08 326.821 3064.6 327.541L3054.69 328.847C3049.21 329.568 3044.19 325.713 3043.47 320.237L3042.16 310.323C3041.44 304.847 3036.42 300.993 3030.94 301.714Z" fill="#4CC2FF"/>
<circle cx="3004.84" cy="103.425" r="10" transform="rotate(-7.5 3004.84 103.425)" fill="#4CC2FF"/>
<circle cx="2798.22" cy="372.698" r="10" transform="rotate(-7.5 2798.22 372.698)" fill="#4CC2FF"/>
<path d="M3237.57 32.4408C3232.09 33.1617 3228.23 38.1849 3228.96 43.6605L3230.26 53.575C3230.98 59.0506 3227.13 64.0738 3221.65 64.7947L3211.74 66.0999C3206.26 66.8208 3202.41 71.8441 3203.13 77.3197C3203.85 82.7953 3208.87 86.6497 3214.35 85.9288L3224.26 84.6236C3229.74 83.9027 3234.76 87.7572 3235.48 93.2328L3236.79 103.147C3237.51 108.623 3242.53 112.477 3248.01 111.756C3253.48 111.036 3257.34 106.012 3256.62 100.537L3255.31 90.6222C3254.59 85.1466 3258.44 80.1234 3263.92 79.4025L3273.83 78.0973C3279.31 77.3764 3283.16 72.3532 3282.44 66.8776C3281.72 61.402 3276.7 57.5475 3271.22 58.2684L3261.31 59.5736C3255.83 60.2945 3250.81 56.44 3250.09 50.9645L3248.78 41.05C3248.06 35.5744 3243.04 31.7199 3237.57 32.4408Z" fill="#4CC2FF"/>
<path d="M3506.84 239.061C3501.36 239.782 3497.51 244.805 3498.23 250.281L3499.53 260.195C3500.25 265.671 3496.4 270.694 3490.92 271.415L3481.01 272.72C3475.53 273.441 3471.68 278.465 3472.4 283.94C3473.12 289.416 3478.15 293.27 3483.62 292.549L3493.54 291.244C3499.01 290.523 3504.03 294.378 3504.76 299.853L3506.06 309.768C3506.78 315.243 3511.8 319.098 3517.28 318.377C3522.76 317.656 3526.61 312.633 3525.89 307.157L3524.58 297.243C3523.86 291.767 3527.72 286.744 3533.19 286.023L3543.11 284.718C3548.58 283.997 3552.44 278.974 3551.72 273.498C3551 268.022 3545.97 264.168 3540.5 264.889L3530.58 266.194C3525.11 266.915 3520.08 263.061 3519.36 257.585L3518.06 247.67C3517.34 242.195 3512.31 238.34 3506.84 239.061Z" fill="#4CC2FF"/>
<circle cx="3480.73" cy="40.7723" r="10" transform="rotate(-7.5 3480.73 40.7723)" fill="#4CC2FF"/>
<circle cx="3274.11" cy="310.045" r="10" transform="rotate(-7.5 3274.11 310.045)" fill="#4CC2FF"/>
<path d="M175.583 677.629C170.108 678.35 166.253 683.373 166.974 688.849L168.279 698.763C169 704.239 165.146 709.262 159.67 709.983L149.756 711.288C144.28 712.009 140.426 717.033 141.147 722.508C141.868 727.984 146.891 731.838 152.366 731.117L162.281 729.812C167.756 729.091 172.78 732.946 173.501 738.421L174.806 748.336C175.527 753.811 180.55 757.666 186.025 756.945C191.501 756.224 195.356 751.201 194.635 745.725L193.329 735.811C192.609 730.335 196.463 725.312 201.939 724.591L211.853 723.286C217.329 722.565 221.183 717.542 220.462 712.066C219.741 706.59 214.718 702.736 209.243 703.457L199.328 704.762C193.852 705.483 188.829 701.628 188.108 696.153L186.803 686.238C186.082 680.763 181.059 676.908 175.583 677.629Z" fill="#4CC2FF"/>
<circle cx="149.478" cy="479.34" r="10" transform="rotate(-7.5 149.478 479.34)" fill="#4CC2FF"/>
<path d="M382.204 408.356C376.728 409.077 372.874 414.1 373.595 419.576L374.9 429.49C375.621 434.966 371.766 439.989 366.291 440.71L356.376 442.015C350.901 442.736 347.046 447.759 347.767 453.235C348.488 458.711 353.511 462.565 358.987 461.844L368.901 460.539C374.377 459.818 379.4 463.673 380.121 469.148L381.426 479.063C382.147 484.538 387.17 488.393 392.646 487.672C398.122 486.951 401.976 481.928 401.255 476.452L399.95 466.538C399.229 461.062 403.083 456.039 408.559 455.318L418.474 454.013C423.949 453.292 427.804 448.269 427.083 442.793C426.362 437.317 421.339 433.463 415.863 434.184L405.949 435.489C400.473 436.21 395.45 432.355 394.729 426.88L393.424 416.965C392.703 411.49 387.679 407.635 382.204 408.356Z" fill="#4CC2FF"/>
<path d="M651.477 614.977C646.001 615.698 642.147 620.721 642.868 626.196L644.173 636.111C644.894 641.586 641.039 646.61 635.564 647.331L625.649 648.636C620.174 649.357 616.319 654.38 617.04 659.856C617.761 665.331 622.784 669.186 628.26 668.465L638.174 667.159C643.65 666.439 648.673 670.293 649.394 675.769L650.699 685.683C651.42 691.159 656.443 695.013 661.919 694.292C667.395 693.571 671.249 688.548 670.528 683.073L669.223 673.158C668.502 667.683 672.357 662.659 677.832 661.938L687.747 660.633C693.222 659.912 697.077 654.889 696.356 649.413C695.635 643.938 690.612 640.083 685.136 640.804L675.222 642.11C669.746 642.83 664.723 638.976 664.002 633.5L662.697 623.586C661.976 618.11 656.953 614.256 651.477 614.977Z" fill="#4CC2FF"/>
<circle cx="625.372" cy="416.688" r="10" transform="rotate(-7.5 625.372 416.688)" fill="#4CC2FF"/>
<circle cx="418.751" cy="685.961" r="10" transform="rotate(-7.5 418.751 685.961)" fill="#4CC2FF"/>
<path d="M858.097 345.704C852.622 346.425 848.767 351.448 849.488 356.923L850.793 366.838C851.514 372.313 847.66 377.337 842.184 378.058L832.27 379.363C826.794 380.084 822.94 385.107 823.661 390.583C824.382 396.058 829.405 399.913 834.88 399.192L844.795 397.886C850.27 397.166 855.294 401.02 856.015 406.496L857.32 416.41C858.041 421.886 863.064 425.74 868.539 425.019C874.015 424.298 877.87 419.275 877.149 413.8L875.843 403.885C875.123 398.409 878.977 393.386 884.453 392.665L894.367 391.36C899.843 390.639 903.697 385.616 902.976 380.14C902.255 374.665 897.232 370.81 891.757 371.531L881.842 372.836C876.366 373.557 871.343 369.703 870.622 364.227L869.317 354.313C868.596 348.837 863.573 344.983 858.097 345.704Z" fill="#4CC2FF"/>
<path d="M1127.37 552.324C1121.89 553.045 1118.04 558.068 1118.76 563.544L1120.07 573.458C1120.79 578.934 1116.93 583.957 1111.46 584.678L1101.54 585.983C1096.07 586.704 1092.21 591.727 1092.93 597.203C1093.65 602.679 1098.68 606.533 1104.15 605.812L1114.07 604.507C1119.54 603.786 1124.57 607.64 1125.29 613.116L1126.59 623.031C1127.31 628.506 1132.34 632.361 1137.81 631.64C1143.29 630.919 1147.14 625.896 1146.42 620.42L1145.12 610.506C1144.4 605.03 1148.25 600.007 1153.73 599.286L1163.64 597.981C1169.12 597.26 1172.97 592.236 1172.25 586.761C1171.53 581.285 1166.51 577.431 1161.03 578.152L1151.12 579.457C1145.64 580.178 1140.62 576.323 1139.9 570.848L1138.59 560.933C1137.87 555.458 1132.85 551.603 1127.37 552.324Z" fill="#4CC2FF"/>
<circle cx="1101.27" cy="354.035" r="10" transform="rotate(-7.5 1101.27 354.035)" fill="#4CC2FF"/>
<circle cx="894.645" cy="623.308" r="10" transform="rotate(-7.5 894.645 623.308)" fill="#4CC2FF"/>
<path d="M1333.99 283.051C1328.52 283.772 1324.66 288.795 1325.38 294.271L1326.69 304.185C1327.41 309.661 1323.55 314.684 1318.08 315.405L1308.16 316.71C1302.69 317.431 1298.83 322.454 1299.55 327.93C1300.28 333.406 1305.3 337.26 1310.77 336.539L1320.69 335.234C1326.16 334.513 1331.19 338.367 1331.91 343.843L1333.21 353.757C1333.93 359.233 1338.96 363.088 1344.43 362.367C1349.91 361.646 1353.76 356.623 1353.04 351.147L1351.74 341.233C1351.02 335.757 1354.87 330.734 1360.35 330.013L1370.26 328.708C1375.74 327.987 1379.59 322.963 1378.87 317.488C1378.15 312.012 1373.13 308.158 1367.65 308.879L1357.74 310.184C1352.26 310.905 1347.24 307.05 1346.52 301.575L1345.21 291.66C1344.49 286.185 1339.47 282.33 1333.99 283.051Z" fill="#4CC2FF"/>
<path d="M1603.26 489.672C1597.79 490.392 1593.93 495.416 1594.65 500.891L1595.96 510.806C1596.68 516.281 1592.83 521.305 1587.35 522.025L1577.44 523.331C1571.96 524.052 1568.11 529.075 1568.83 534.55C1569.55 540.026 1574.57 543.88 1580.05 543.16L1589.96 541.854C1595.44 541.133 1600.46 544.988 1601.18 550.464L1602.49 560.378C1603.21 565.854 1608.23 569.708 1613.71 568.987C1619.18 568.266 1623.04 563.243 1622.32 557.767L1621.01 547.853C1620.29 542.377 1624.14 537.354 1629.62 536.633L1639.53 535.328C1645.01 534.607 1648.86 529.584 1648.14 524.108C1647.42 518.633 1642.4 514.778 1636.92 515.499L1627.01 516.804C1621.53 517.525 1616.51 513.671 1615.79 508.195L1614.48 498.281C1613.76 492.805 1608.74 488.951 1603.26 489.672Z" fill="#4CC2FF"/>
<circle cx="1577.16" cy="291.383" r="10" transform="rotate(-7.5 1577.16 291.383)" fill="#4CC2FF"/>
<circle cx="1370.54" cy="560.656" r="10" transform="rotate(-7.5 1370.54 560.656)" fill="#4CC2FF"/>
<path d="M1809.88 220.399C1804.41 221.119 1800.55 226.143 1801.28 231.618L1802.58 241.533C1803.3 247.008 1799.45 252.032 1793.97 252.752L1784.06 254.058C1778.58 254.779 1774.73 259.802 1775.45 265.277C1776.17 270.753 1781.19 274.607 1786.67 273.887L1796.58 272.581C1802.06 271.86 1807.08 275.715 1807.8 281.19L1809.11 291.105C1809.83 296.581 1814.85 300.435 1820.33 299.714C1825.8 298.993 1829.66 293.97 1828.94 288.494L1827.63 278.58C1826.91 273.104 1830.76 268.081 1836.24 267.36L1846.15 266.055C1851.63 265.334 1855.48 260.311 1854.76 254.835C1854.04 249.36 1849.02 245.505 1843.54 246.226L1833.63 247.531C1828.15 248.252 1823.13 244.398 1822.41 238.922L1821.1 229.008C1820.38 223.532 1815.36 219.678 1809.88 220.399Z" fill="#4CC2FF"/>
<path d="M2079.16 427.019C2073.68 427.74 2069.83 432.763 2070.55 438.239L2071.85 448.153C2072.57 453.629 2068.72 458.652 2063.24 459.373L2053.33 460.678C2047.85 461.399 2044 466.422 2044.72 471.898C2045.44 477.373 2050.46 481.228 2055.94 480.507L2065.85 479.202C2071.33 478.481 2076.35 482.335 2077.07 487.811L2078.38 497.725C2079.1 503.201 2084.12 507.055 2089.6 506.335C2095.08 505.614 2098.93 500.59 2098.21 495.115L2096.9 485.2C2096.18 479.725 2100.04 474.702 2105.51 473.981L2115.43 472.675C2120.9 471.955 2124.76 466.931 2124.04 461.456C2123.32 455.98 2118.29 452.126 2112.82 452.847L2102.9 454.152C2097.43 454.873 2092.4 451.018 2091.68 445.543L2090.38 435.628C2089.66 430.153 2084.63 426.298 2079.16 427.019Z" fill="#4CC2FF"/>
<circle cx="2053.05" cy="228.73" r="10" transform="rotate(-7.5 2053.05 228.73)" fill="#4CC2FF"/>
<circle cx="1846.43" cy="498.003" r="10" transform="rotate(-7.5 1846.43 498.003)" fill="#4CC2FF"/>
<path d="M2285.78 157.746C2280.3 158.467 2276.45 163.49 2277.17 168.966L2278.47 178.88C2279.19 184.356 2275.34 189.379 2269.86 190.1L2259.95 191.405C2254.47 192.126 2250.62 197.149 2251.34 202.625C2252.06 208.1 2257.09 211.955 2262.56 211.234L2272.48 209.929C2277.95 209.208 2282.97 213.062 2283.7 218.538L2285 228.452C2285.72 233.928 2290.74 237.782 2296.22 237.062C2301.7 236.341 2305.55 231.317 2304.83 225.842L2303.52 215.927C2302.8 210.452 2306.66 205.429 2312.13 204.708L2322.05 203.402C2327.52 202.682 2331.38 197.658 2330.66 192.183C2329.94 186.707 2324.91 182.853 2319.44 183.574L2309.52 184.879C2304.05 185.6 2299.02 181.745 2298.3 176.27L2297 166.355C2296.28 160.88 2291.25 157.025 2285.78 157.746Z" fill="#4CC2FF"/>
<path d="M2555.05 364.366C2549.58 365.087 2545.72 370.111 2546.44 375.586L2547.75 385.501C2548.47 390.976 2544.61 395.999 2539.14 396.72L2529.22 398.026C2523.75 398.746 2519.89 403.77 2520.61 409.245C2521.34 414.721 2526.36 418.575 2531.83 417.854L2541.75 416.549C2547.22 415.828 2552.25 419.683 2552.97 425.158L2554.27 435.073C2554.99 440.548 2560.02 444.403 2565.49 443.682C2570.97 442.961 2574.82 437.938 2574.1 432.462L2572.8 422.548C2572.08 417.072 2575.93 412.049 2581.41 411.328L2591.32 410.023C2596.8 409.302 2600.65 404.279 2599.93 398.803C2599.21 393.328 2594.19 389.473 2588.71 390.194L2578.8 391.499C2573.32 392.22 2568.3 388.366 2567.58 382.89L2566.27 372.976C2565.55 367.5 2560.53 363.646 2555.05 364.366Z" fill="#4CC2FF"/>
<circle cx="2528.95" cy="166.077" r="10" transform="rotate(-7.5 2528.95 166.077)" fill="#4CC2FF"/>
<circle cx="2322.33" cy="435.351" r="10" transform="rotate(-7.5 2322.33 435.351)" fill="#4CC2FF"/>
<path d="M2824.32 570.987C2818.85 571.708 2814.99 576.731 2815.71 582.207L2817.02 592.121C2817.74 597.597 2813.89 602.62 2808.41 603.341L2798.5 604.646C2793.02 605.367 2789.17 610.39 2789.89 615.866C2790.61 621.341 2795.63 625.196 2801.11 624.475L2811.02 623.17C2816.5 622.449 2821.52 626.303 2822.24 631.779L2823.55 641.693C2824.27 647.169 2829.29 651.023 2834.77 650.302C2840.24 649.582 2844.1 644.558 2843.38 639.083L2842.07 629.168C2841.35 623.693 2845.2 618.669 2850.68 617.949L2860.59 616.643C2866.07 615.922 2869.92 610.899 2869.2 605.424C2868.48 599.948 2863.46 596.094 2857.98 596.814L2848.07 598.12C2842.59 598.841 2837.57 594.986 2836.85 589.511L2835.54 579.596C2834.82 574.12 2829.8 570.266 2824.32 570.987Z" fill="#4CC2FF"/>
<path d="M3093.6 777.607C3088.12 778.328 3084.27 783.351 3084.99 788.827L3086.29 798.742C3087.01 804.217 3083.16 809.24 3077.68 809.961L3067.77 811.267C3062.29 811.987 3058.44 817.011 3059.16 822.486C3059.88 827.962 3064.9 831.816 3070.38 831.095L3080.29 829.79C3085.77 829.069 3090.79 832.924 3091.51 838.399L3092.82 848.314C3093.54 853.789 3098.56 857.644 3104.04 856.923C3109.51 856.202 3113.37 851.179 3112.65 845.703L3111.34 835.789C3110.62 830.313 3114.48 825.29 3119.95 824.569L3129.87 823.264C3135.34 822.543 3139.2 817.52 3138.48 812.044C3137.75 806.569 3132.73 802.714 3127.26 803.435L3117.34 804.74C3111.87 805.461 3106.84 801.607 3106.12 796.131L3104.82 786.217C3104.1 780.741 3099.07 776.887 3093.6 777.607Z" fill="#4CC2FF"/>
<circle cx="3067.49" cy="579.318" r="10" transform="rotate(-7.5 3067.49 579.318)" fill="#4CC2FF"/>
<circle cx="2860.87" cy="848.591" r="10" transform="rotate(-7.5 2860.87 848.591)" fill="#4CC2FF"/>
<path d="M3300.22 508.334C3294.74 509.055 3290.89 514.078 3291.61 519.554L3292.91 529.469C3293.63 534.944 3289.78 539.967 3284.3 540.688L3274.39 541.993C3268.91 542.714 3265.06 547.738 3265.78 553.213C3266.5 558.689 3271.52 562.543 3277 561.822L3286.92 560.517C3292.39 559.796 3297.41 563.651 3298.13 569.126L3299.44 579.041C3300.16 584.516 3305.18 588.371 3310.66 587.65C3316.14 586.929 3319.99 581.906 3319.27 576.43L3317.96 566.516C3317.24 561.04 3321.1 556.017 3326.57 555.296L3336.49 553.991C3341.96 553.27 3345.82 548.247 3345.1 542.771C3344.38 537.295 3339.35 533.441 3333.88 534.162L3323.96 535.467C3318.49 536.188 3313.46 532.334 3312.74 526.858L3311.44 516.944C3310.72 511.468 3305.69 507.613 3300.22 508.334Z" fill="#4CC2FF"/>
<circle cx="3336.76" cy="785.939" r="10" transform="rotate(-7.5 3336.76 785.939)" fill="#4CC2FF"/>
<path d="M-31.0371 946.902C-36.5127 947.623 -40.3672 952.646 -39.6463 958.122L-38.341 968.036C-37.6201 973.512 -41.4746 978.535 -46.9502 979.256L-56.8647 980.561C-62.3403 981.282 -66.1947 986.306 -65.4738 991.781C-64.753 997.257 -59.7297 1001.11 -54.2541 1000.39L-44.3397 999.085C-38.8641 998.364 -33.8408 1002.22 -33.12 1007.69L-31.8147 1017.61C-31.0938 1023.08 -26.0706 1026.94 -20.595 1026.22C-15.1194 1025.5 -11.2649 1020.47 -11.9858 1015L-13.2911 1005.08C-14.0119 999.608 -10.1575 994.585 -4.68189 993.864L5.23256 992.559C10.7082 991.838 14.5626 986.815 13.8417 981.339C13.1209 975.863 8.09764 972.009 2.62204 972.73L-7.29241 974.035C-12.768 974.756 -17.7912 970.902 -18.5121 965.426L-19.8174 955.511C-20.5383 950.036 -25.5615 946.181 -31.0371 946.902Z" fill="#4CC2FF"/>
<path d="M238.236 1153.52C232.76 1154.24 228.906 1159.27 229.627 1164.74L230.932 1174.66C231.653 1180.13 227.798 1185.16 222.323 1185.88L212.408 1187.18C206.933 1187.9 203.078 1192.93 203.799 1198.4C204.52 1203.88 209.543 1207.73 215.019 1207.01L224.933 1205.71C230.409 1204.98 235.432 1208.84 236.153 1214.31L237.458 1224.23C238.179 1229.7 243.202 1233.56 248.678 1232.84C254.154 1232.12 258.008 1227.09 257.287 1221.62L255.982 1211.7C255.261 1206.23 259.116 1201.21 264.591 1200.48L274.506 1199.18C279.981 1198.46 283.836 1193.44 283.115 1187.96C282.394 1182.48 277.371 1178.63 271.895 1179.35L261.981 1180.66C256.505 1181.38 251.482 1177.52 250.761 1172.05L249.456 1162.13C248.735 1156.66 243.712 1152.8 238.236 1153.52Z" fill="#4CC2FF"/>
<circle cx="212.131" cy="955.234" r="10" transform="rotate(-7.5 212.131 955.234)" fill="#4CC2FF"/>
<circle cx="5.51024" cy="1224.51" r="10" transform="rotate(-7.5 5.51024 1224.51)" fill="#4CC2FF"/>
<path d="M444.856 884.25C439.381 884.971 435.526 889.994 436.247 895.469L437.553 905.384C438.273 910.86 434.419 915.883 428.943 916.604L419.029 917.909C413.553 918.63 409.699 923.653 410.42 929.129C411.141 934.604 416.164 938.459 421.639 937.738L431.554 936.433C437.029 935.712 442.053 939.566 442.774 945.042L444.079 954.956C444.8 960.432 449.823 964.286 455.299 963.565C460.774 962.844 464.629 957.821 463.908 952.346L462.602 942.431C461.882 936.956 465.736 931.932 471.212 931.211L481.126 929.906C486.602 929.185 490.456 924.162 489.735 918.687C489.014 913.211 483.991 909.356 478.516 910.077L468.601 911.383C463.126 912.103 458.102 908.249 457.381 902.773L456.076 892.859C455.355 887.383 450.332 883.529 444.856 884.25Z" fill="#4CC2FF"/>
<path d="M714.129 1090.87C708.654 1091.59 704.799 1096.61 705.52 1102.09L706.826 1112C707.546 1117.48 703.692 1122.5 698.216 1123.22L688.302 1124.53C682.826 1125.25 678.972 1130.27 679.693 1135.75C680.414 1141.22 685.437 1145.08 690.912 1144.36L700.827 1143.05C706.302 1142.33 711.326 1146.19 712.047 1151.66L713.352 1161.58C714.073 1167.05 719.096 1170.91 724.572 1170.19C730.047 1169.46 733.902 1164.44 733.181 1158.97L731.876 1149.05C731.155 1143.58 735.009 1138.55 740.485 1137.83L750.399 1136.53C755.875 1135.81 759.729 1130.78 759.008 1125.31C758.287 1119.83 753.264 1115.98 747.789 1116.7L737.874 1118C732.399 1118.72 727.375 1114.87 726.654 1109.39L725.349 1099.48C724.628 1094 719.605 1090.15 714.129 1090.87Z" fill="#4CC2FF"/>
<circle cx="688.024" cy="892.581" r="10" transform="rotate(-7.5 688.024 892.581)" fill="#4CC2FF"/>
<circle cx="481.404" cy="1161.85" r="10" transform="rotate(-7.5 481.404 1161.85)" fill="#4CC2FF"/>
<path d="M920.75 821.597C915.274 822.318 911.42 827.341 912.141 832.817L913.446 842.731C914.167 848.207 910.312 853.23 904.837 853.951L894.922 855.256C889.447 855.977 885.592 861 886.313 866.476C887.034 871.952 892.057 875.806 897.533 875.085L907.447 873.78C912.923 873.059 917.946 876.914 918.667 882.389L919.972 892.304C920.693 897.779 925.716 901.634 931.192 900.913C936.668 900.192 940.522 895.169 939.801 889.693L938.496 879.779C937.775 874.303 941.63 869.28 947.105 868.559L957.02 867.254C962.495 866.533 966.35 861.51 965.629 856.034C964.908 850.558 959.885 846.704 954.409 847.425L944.495 848.73C939.019 849.451 933.996 845.596 933.275 840.121L931.97 830.206C931.249 824.731 926.226 820.876 920.75 821.597Z" fill="#4CC2FF"/>
<path d="M1190.02 1028.22C1184.55 1028.94 1180.69 1033.96 1181.41 1039.44L1182.72 1049.35C1183.44 1054.83 1179.59 1059.85 1174.11 1060.57L1164.2 1061.88C1158.72 1062.6 1154.87 1067.62 1155.59 1073.1C1156.31 1078.57 1161.33 1082.43 1166.81 1081.71L1176.72 1080.4C1182.2 1079.68 1187.22 1083.53 1187.94 1089.01L1189.25 1098.92C1189.97 1104.4 1194.99 1108.25 1200.47 1107.53C1205.94 1106.81 1209.8 1101.79 1209.07 1096.31L1207.77 1086.4C1207.05 1080.92 1210.9 1075.9 1216.38 1075.18L1226.29 1073.87C1231.77 1073.15 1235.62 1068.13 1234.9 1062.65C1234.18 1057.18 1229.16 1053.32 1223.68 1054.05L1213.77 1055.35C1208.29 1056.07 1203.27 1052.22 1202.55 1046.74L1201.24 1036.83C1200.52 1031.35 1195.5 1027.5 1190.02 1028.22Z" fill="#4CC2FF"/>
<circle cx="1163.92" cy="829.929" r="10" transform="rotate(-7.5 1163.92 829.929)" fill="#4CC2FF"/>
<circle cx="957.297" cy="1099.2" r="10" transform="rotate(-7.5 957.297 1099.2)" fill="#4CC2FF"/>
<path d="M1396.64 758.945C1391.17 759.665 1387.31 764.689 1388.03 770.164L1389.34 780.079C1390.06 785.554 1386.21 790.578 1380.73 791.298L1370.82 792.604C1365.34 793.325 1361.49 798.348 1362.21 803.823C1362.93 809.299 1367.95 813.154 1373.43 812.433L1383.34 811.127C1388.82 810.406 1393.84 814.261 1394.56 819.737L1395.87 829.651C1396.59 835.127 1401.61 838.981 1407.09 838.26C1412.56 837.539 1416.42 832.516 1415.69 827.04L1414.39 817.126C1413.67 811.65 1417.52 806.627 1423 805.906L1432.91 804.601C1438.39 803.88 1442.24 798.857 1441.52 793.381C1440.8 787.906 1435.78 784.051 1430.3 784.772L1420.39 786.077C1414.91 786.798 1409.89 782.944 1409.17 777.468L1407.86 767.554C1407.14 762.078 1402.12 758.224 1396.64 758.945Z" fill="#4CC2FF"/>
<path d="M1665.92 965.565C1660.44 966.286 1656.59 971.309 1657.31 976.785L1658.61 986.699C1659.33 992.175 1655.48 997.198 1650 997.919L1640.09 999.224C1634.61 999.945 1630.76 1004.97 1631.48 1010.44C1632.2 1015.92 1637.22 1019.77 1642.7 1019.05L1652.61 1017.75C1658.09 1017.03 1663.11 1020.88 1663.83 1026.36L1665.14 1036.27C1665.86 1041.75 1670.88 1045.6 1676.36 1044.88C1681.83 1044.16 1685.69 1039.14 1684.97 1033.66L1683.66 1023.75C1682.94 1018.27 1686.8 1013.25 1692.27 1012.53L1702.19 1011.22C1707.66 1010.5 1711.52 1005.48 1710.8 1000C1710.07 994.526 1705.05 990.672 1699.58 991.393L1689.66 992.698C1684.19 993.419 1679.16 989.564 1678.44 984.089L1677.14 974.174C1676.42 968.699 1671.39 964.844 1665.92 965.565Z" fill="#4CC2FF"/>
<circle cx="1639.81" cy="767.276" r="10" transform="rotate(-7.5 1639.81 767.276)" fill="#4CC2FF"/>
<circle cx="1433.19" cy="1036.55" r="10" transform="rotate(-7.5 1433.19 1036.55)" fill="#4CC2FF"/>
<path d="M1872.54 696.292C1867.06 697.013 1863.21 702.036 1863.93 707.512L1865.23 717.426C1865.95 722.902 1862.1 727.925 1856.62 728.646L1846.71 729.951C1841.23 730.672 1837.38 735.695 1838.1 741.171C1838.82 746.646 1843.84 750.501 1849.32 749.78L1859.23 748.475C1864.71 747.754 1869.73 751.608 1870.45 757.084L1871.76 766.998C1872.48 772.474 1877.5 776.329 1882.98 775.608C1888.45 774.887 1892.31 769.864 1891.59 764.388L1890.28 754.473C1889.56 748.998 1893.42 743.975 1898.89 743.254L1908.81 741.949C1914.28 741.228 1918.14 736.204 1917.42 730.729C1916.69 725.253 1911.67 721.399 1906.2 722.12L1896.28 723.425C1890.81 724.146 1885.78 720.291 1885.06 714.816L1883.76 704.901C1883.04 699.426 1878.01 695.571 1872.54 696.292Z" fill="#4CC2FF"/>
<path d="M2141.81 902.912C2136.33 903.633 2132.48 908.657 2133.2 914.132L2134.51 924.047C2135.23 929.522 2131.37 934.545 2125.9 935.266L2115.98 936.572C2110.51 937.293 2106.65 942.316 2107.37 947.791C2108.09 953.267 2113.12 957.121 2118.59 956.401L2128.51 955.095C2133.98 954.374 2139.01 958.229 2139.73 963.704L2141.03 973.619C2141.75 979.094 2146.78 982.949 2152.25 982.228C2157.73 981.507 2161.58 976.484 2160.86 971.008L2159.56 961.094C2158.84 955.618 2162.69 950.595 2168.17 949.874L2178.08 948.569C2183.56 947.848 2187.41 942.825 2186.69 937.349C2185.97 931.874 2180.94 928.019 2175.47 928.74L2165.55 930.045C2160.08 930.766 2155.06 926.912 2154.33 921.436L2153.03 911.522C2152.31 906.046 2147.29 902.192 2141.81 902.912Z" fill="#4CC2FF"/>
<circle cx="2115.7" cy="704.624" r="10" transform="rotate(-7.5 2115.7 704.624)" fill="#4CC2FF"/>
<circle cx="1909.08" cy="973.897" r="10" transform="rotate(-7.5 1909.08 973.897)" fill="#4CC2FF"/>
<path d="M2348.43 633.639C2342.95 634.36 2339.1 639.384 2339.82 644.859L2341.13 654.774C2341.85 660.249 2337.99 665.272 2332.52 665.993L2322.6 667.299C2317.13 668.019 2313.27 673.043 2313.99 678.518C2314.71 683.994 2319.74 687.848 2325.21 687.128L2335.13 685.822C2340.6 685.101 2345.63 688.956 2346.35 694.431L2347.65 704.346C2348.37 709.821 2353.4 713.676 2358.87 712.955C2364.35 712.234 2368.2 707.211 2367.48 701.735L2366.18 691.821C2365.46 686.345 2369.31 681.322 2374.79 680.601L2384.7 679.296C2390.18 678.575 2394.03 673.552 2393.31 668.076C2392.59 662.601 2387.57 658.746 2382.09 659.467L2372.18 660.772C2366.7 661.493 2361.68 657.639 2360.96 652.163L2359.65 642.249C2358.93 636.773 2353.91 632.919 2348.43 633.639Z" fill="#4CC2FF"/>
<path d="M2617.7 840.26C2612.23 840.981 2608.37 846.004 2609.09 851.48L2610.4 861.394C2611.12 866.87 2607.27 871.893 2601.79 872.614L2591.88 873.919C2586.4 874.64 2582.55 879.663 2583.27 885.139C2583.99 890.614 2589.01 894.469 2594.49 893.748L2604.4 892.443C2609.88 891.722 2614.9 895.576 2615.62 901.052L2616.93 910.966C2617.65 916.442 2622.67 920.296 2628.15 919.576C2633.62 918.855 2637.48 913.831 2636.75 908.356L2635.45 898.441C2634.73 892.966 2638.58 887.943 2644.06 887.222L2653.97 885.916C2659.45 885.196 2663.3 880.172 2662.58 874.697C2661.86 869.221 2656.84 865.367 2651.36 866.088L2641.45 867.393C2635.97 868.114 2630.95 864.259 2630.23 858.784L2628.92 848.869C2628.2 843.394 2623.18 839.539 2617.7 840.26Z" fill="#4CC2FF"/>
<circle cx="2591.6" cy="641.971" r="10" transform="rotate(-7.5 2591.6 641.971)" fill="#4CC2FF"/>
<circle cx="2384.98" cy="911.244" r="10" transform="rotate(-7.5 2384.98 911.244)" fill="#4CC2FF"/>
<path d="M2886.98 1046.88C2881.5 1047.6 2877.65 1052.62 2878.37 1058.1L2879.67 1068.01C2880.39 1073.49 2876.54 1078.51 2871.06 1079.23L2861.15 1080.54C2855.67 1081.26 2851.82 1086.28 2852.54 1091.76C2853.26 1097.23 2858.28 1101.09 2863.76 1100.37L2873.67 1099.06C2879.15 1098.34 2884.17 1102.2 2884.89 1107.67L2886.2 1117.59C2886.92 1123.06 2891.94 1126.92 2897.42 1126.2C2902.89 1125.48 2906.75 1120.45 2906.03 1114.98L2904.72 1105.06C2904 1099.59 2907.86 1094.56 2913.33 1093.84L2923.25 1092.54C2928.72 1091.82 2932.58 1086.79 2931.86 1081.32C2931.13 1075.84 2926.11 1071.99 2920.64 1072.71L2910.72 1074.01C2905.25 1074.73 2900.22 1070.88 2899.5 1065.4L2898.2 1055.49C2897.48 1050.01 2892.45 1046.16 2886.98 1046.88Z" fill="#4CC2FF"/>
<path d="M3156.25 1253.5C3150.77 1254.22 3146.92 1259.24 3147.64 1264.72L3148.95 1274.64C3149.67 1280.11 3145.81 1285.13 3140.34 1285.85L3130.42 1287.16C3124.95 1287.88 3121.09 1292.9 3121.81 1298.38C3122.53 1303.86 3127.56 1307.71 3133.03 1306.99L3142.95 1305.68C3148.42 1304.96 3153.45 1308.82 3154.17 1314.29L3155.47 1324.21C3156.19 1329.68 3161.22 1333.54 3166.69 1332.82C3172.17 1332.1 3176.02 1327.07 3175.3 1321.6L3174 1311.68C3173.27 1306.21 3177.13 1301.18 3182.6 1300.46L3192.52 1299.16C3197.99 1298.44 3201.85 1293.41 3201.13 1287.94C3200.41 1282.46 3195.38 1278.61 3189.91 1279.33L3179.99 1280.63C3174.52 1281.35 3169.5 1277.5 3168.77 1272.02L3167.47 1262.11C3166.75 1256.63 3161.73 1252.78 3156.25 1253.5Z" fill="#4CC2FF"/>
<circle cx="3130.14" cy="1055.21" r="10" transform="rotate(-7.5 3130.14 1055.21)" fill="#4CC2FF"/>
<circle cx="2923.52" cy="1324.48" r="10" transform="rotate(-7.5 2923.52 1324.48)" fill="#4CC2FF"/>
<path d="M3362.87 984.228C3357.39 984.949 3353.54 989.972 3354.26 995.448L3355.57 1005.36C3356.29 1010.84 3352.43 1015.86 3346.96 1016.58L3337.04 1017.89C3331.57 1018.61 3327.71 1023.63 3328.43 1029.11C3329.15 1034.58 3334.18 1038.44 3339.65 1037.72L3349.57 1036.41C3355.04 1035.69 3360.07 1039.54 3360.79 1045.02L3362.09 1054.93C3362.81 1060.41 3367.84 1064.26 3373.31 1063.54C3378.79 1062.82 3382.64 1057.8 3381.92 1052.32L3380.62 1042.41C3379.9 1036.93 3383.75 1031.91 3389.23 1031.19L3399.14 1029.88C3404.62 1029.16 3408.47 1024.14 3407.75 1018.66C3407.03 1013.19 3402 1009.33 3396.53 1010.06L3386.61 1011.36C3381.14 1012.08 3376.12 1008.23 3375.4 1002.75L3374.09 992.837C3373.37 987.361 3368.35 983.507 3362.87 984.228Z" fill="#4CC2FF"/>
<circle cx="3399.42" cy="1261.83" r="10" transform="rotate(-7.5 3399.42 1261.83)" fill="#4CC2FF"/>
<path d="M31.6155 1422.8C26.1399 1423.52 22.2854 1428.54 23.0063 1434.02L24.3116 1443.93C25.0324 1449.41 21.178 1454.43 15.7024 1455.15L5.78794 1456.45C0.312337 1457.18 -3.54213 1462.2 -2.82125 1467.67C-2.10037 1473.15 2.92286 1477 8.39846 1476.28L18.3129 1474.98C23.7885 1474.26 28.8117 1478.11 29.5326 1483.59L30.8379 1493.5C31.5588 1498.98 36.582 1502.83 42.0576 1502.11C47.5332 1501.39 51.3877 1496.37 50.6668 1490.89L49.3615 1480.98C48.6406 1475.5 52.4951 1470.48 57.9707 1469.76L67.8851 1468.45C73.3608 1467.73 77.2152 1462.71 76.4943 1457.23C75.7735 1451.76 70.7502 1447.9 65.2746 1448.62L55.3602 1449.93C49.8846 1450.65 44.8613 1446.8 44.1405 1441.32L42.8352 1431.4C42.1143 1425.93 37.0911 1422.07 31.6155 1422.8Z" fill="#4CC2FF"/>
<circle cx="274.783" cy="1431.13" r="10" transform="rotate(-7.5 274.783 1431.13)" fill="#4CC2FF"/>
<path d="M507.509 1360.14C502.033 1360.86 498.179 1365.89 498.9 1371.36L500.205 1381.28C500.926 1386.75 497.072 1391.78 491.596 1392.5L481.681 1393.8C476.206 1394.52 472.351 1399.55 473.072 1405.02C473.793 1410.5 478.816 1414.35 484.292 1413.63L494.206 1412.33C499.682 1411.61 504.705 1415.46 505.426 1420.94L506.731 1430.85C507.452 1436.33 512.476 1440.18 517.951 1439.46C523.427 1438.74 527.281 1433.71 526.56 1428.24L525.255 1418.32C524.534 1412.85 528.389 1407.83 533.864 1407.1L543.779 1405.8C549.254 1405.08 553.109 1400.06 552.388 1394.58C551.667 1389.1 546.644 1385.25 541.168 1385.97L531.254 1387.28C525.778 1388 520.755 1384.14 520.034 1378.67L518.729 1368.75C518.008 1363.28 512.985 1359.42 507.509 1360.14Z" fill="#4CC2FF"/>
<circle cx="750.677" cy="1368.47" r="10" transform="rotate(-7.5 750.677 1368.47)" fill="#4CC2FF"/>
<path d="M983.403 1297.49C977.927 1298.21 974.072 1303.23 974.793 1308.71L976.099 1318.62C976.819 1324.1 972.965 1329.12 967.489 1329.84L957.575 1331.15C952.099 1331.87 948.245 1336.89 948.966 1342.37C949.687 1347.85 954.71 1351.7 960.185 1350.98L970.1 1349.67C975.576 1348.95 980.599 1352.81 981.32 1358.28L982.625 1368.2C983.346 1373.67 988.369 1377.53 993.845 1376.81C999.32 1376.09 1003.17 1371.06 1002.45 1365.59L1001.15 1355.67C1000.43 1350.2 1004.28 1345.17 1009.76 1344.45L1019.67 1343.15C1025.15 1342.43 1029 1337.4 1028.28 1331.93C1027.56 1326.45 1022.54 1322.6 1017.06 1323.32L1007.15 1324.62C1001.67 1325.34 996.648 1321.49 995.928 1316.01L994.622 1306.1C993.901 1300.62 988.878 1296.77 983.403 1297.49Z" fill="#4CC2FF"/>
<path d="M1252.68 1504.11C1247.2 1504.83 1243.35 1509.86 1244.07 1515.33L1245.37 1525.25C1246.09 1530.72 1242.24 1535.74 1236.76 1536.47L1226.85 1537.77C1221.37 1538.49 1217.52 1543.51 1218.24 1548.99C1218.96 1554.47 1223.98 1558.32 1229.46 1557.6L1239.37 1556.29C1244.85 1555.57 1249.87 1559.43 1250.59 1564.9L1251.9 1574.82C1252.62 1580.29 1257.64 1584.15 1263.12 1583.43C1268.59 1582.71 1272.45 1577.68 1271.73 1572.21L1270.42 1562.29C1269.7 1556.82 1273.56 1551.79 1279.03 1551.07L1288.95 1549.77C1294.42 1549.05 1298.28 1544.02 1297.55 1538.55C1296.83 1533.07 1291.81 1529.22 1286.33 1529.94L1276.42 1531.24C1270.94 1531.96 1265.92 1528.11 1265.2 1522.63L1263.9 1512.72C1263.17 1507.24 1258.15 1503.39 1252.68 1504.11Z" fill="#4CC2FF"/>
<circle cx="1226.57" cy="1305.82" r="10" transform="rotate(-7.5 1226.57 1305.82)" fill="#4CC2FF"/>
<path d="M1459.3 1234.84C1453.82 1235.56 1449.97 1240.58 1450.69 1246.06L1451.99 1255.97C1452.71 1261.45 1448.86 1266.47 1443.38 1267.19L1433.47 1268.5C1427.99 1269.22 1424.14 1274.24 1424.86 1279.72C1425.58 1285.19 1430.6 1289.05 1436.08 1288.33L1445.99 1287.02C1451.47 1286.3 1456.49 1290.15 1457.21 1295.63L1458.52 1305.54C1459.24 1311.02 1464.26 1314.87 1469.74 1314.15C1475.21 1313.43 1479.07 1308.41 1478.35 1302.93L1477.04 1293.02C1476.32 1287.54 1480.18 1282.52 1485.65 1281.8L1495.57 1280.49C1501.04 1279.77 1504.9 1274.75 1504.17 1269.27C1503.45 1263.8 1498.43 1259.94 1492.96 1260.67L1483.04 1261.97C1477.57 1262.69 1472.54 1258.84 1471.82 1253.36L1470.52 1243.45C1469.79 1237.97 1464.77 1234.12 1459.3 1234.84Z" fill="#4CC2FF"/>
<path d="M1728.57 1441.46C1723.09 1442.18 1719.24 1447.2 1719.96 1452.68L1721.27 1462.59C1721.99 1468.07 1718.13 1473.09 1712.66 1473.81L1702.74 1475.12C1697.27 1475.84 1693.41 1480.86 1694.13 1486.34C1694.85 1491.81 1699.88 1495.67 1705.35 1494.95L1715.27 1493.64C1720.74 1492.92 1725.77 1496.77 1726.49 1502.25L1727.79 1512.17C1728.51 1517.64 1733.54 1521.5 1739.01 1520.77C1744.49 1520.05 1748.34 1515.03 1747.62 1509.55L1746.32 1499.64C1745.59 1494.16 1749.45 1489.14 1754.92 1488.42L1764.84 1487.12C1770.31 1486.39 1774.17 1481.37 1773.45 1475.9C1772.73 1470.42 1767.7 1466.57 1762.23 1467.29L1752.31 1468.59C1746.84 1469.31 1741.81 1465.46 1741.09 1459.98L1739.79 1450.07C1739.07 1444.59 1734.04 1440.74 1728.57 1441.46Z" fill="#4CC2FF"/>
<circle cx="1702.46" cy="1243.17" r="10" transform="rotate(-7.5 1702.46 1243.17)" fill="#4CC2FF"/>
<circle cx="1495.84" cy="1512.44" r="10" transform="rotate(-7.5 1495.84 1512.44)" fill="#4CC2FF"/>
<path d="M1935.19 1172.19C1929.71 1172.91 1925.86 1177.93 1926.58 1183.41L1927.89 1193.32C1928.61 1198.8 1924.75 1203.82 1919.28 1204.54L1909.36 1205.84C1903.89 1206.57 1900.03 1211.59 1900.75 1217.06C1901.47 1222.54 1906.5 1226.39 1911.97 1225.67L1921.89 1224.37C1927.36 1223.65 1932.39 1227.5 1933.11 1232.98L1934.41 1242.89C1935.13 1248.37 1940.16 1252.22 1945.63 1251.5C1951.11 1250.78 1954.96 1245.76 1954.24 1240.28L1952.94 1230.37C1952.21 1224.89 1956.07 1219.87 1961.54 1219.15L1971.46 1217.84C1976.93 1217.12 1980.79 1212.1 1980.07 1206.62C1979.35 1201.15 1974.32 1197.29 1968.85 1198.01L1958.93 1199.32C1953.46 1200.04 1948.44 1196.18 1947.71 1190.71L1946.41 1180.79C1945.69 1175.32 1940.67 1171.46 1935.19 1172.19Z" fill="#4CC2FF"/>
<path d="M2204.46 1378.81C2198.99 1379.53 2195.13 1384.55 2195.85 1390.03L2197.16 1399.94C2197.88 1405.42 2194.03 1410.44 2188.55 1411.16L2178.64 1412.47C2173.16 1413.19 2169.3 1418.21 2170.03 1423.68C2170.75 1429.16 2175.77 1433.01 2181.25 1432.29L2191.16 1430.99C2196.64 1430.27 2201.66 1434.12 2202.38 1439.6L2203.68 1449.51C2204.41 1454.99 2209.43 1458.84 2214.9 1458.12C2220.38 1457.4 2224.23 1452.38 2223.51 1446.9L2222.21 1436.99C2221.49 1431.51 2225.34 1426.49 2230.82 1425.77L2240.73 1424.46C2246.21 1423.74 2250.06 1418.72 2249.34 1413.24C2248.62 1407.77 2243.6 1403.91 2238.12 1404.63L2228.21 1405.94C2222.73 1406.66 2217.71 1402.81 2216.99 1397.33L2215.68 1387.42C2214.96 1381.94 2209.94 1378.09 2204.46 1378.81Z" fill="#4CC2FF"/>
<circle cx="2178.36" cy="1180.52" r="10" transform="rotate(-7.5 2178.36 1180.52)" fill="#4CC2FF"/>
<circle cx="1971.74" cy="1449.79" r="10" transform="rotate(-7.5 1971.74 1449.79)" fill="#4CC2FF"/>
<path d="M2411.08 1109.53C2405.61 1110.25 2401.75 1115.28 2402.47 1120.75L2403.78 1130.67C2404.5 1136.14 2400.65 1141.17 2395.17 1141.89L2385.26 1143.19C2379.78 1143.91 2375.93 1148.94 2376.65 1154.41C2377.37 1159.89 2382.39 1163.74 2387.87 1163.02L2397.78 1161.72C2403.26 1160.99 2408.28 1164.85 2409 1170.32L2410.31 1180.24C2411.03 1185.71 2416.05 1189.57 2421.53 1188.85C2427 1188.13 2430.86 1183.1 2430.13 1177.63L2428.83 1167.71C2428.11 1162.24 2431.96 1157.22 2437.44 1156.49L2447.35 1155.19C2452.83 1154.47 2456.68 1149.45 2455.96 1143.97C2455.24 1138.49 2450.22 1134.64 2444.74 1135.36L2434.83 1136.67C2429.35 1137.39 2424.33 1133.53 2423.61 1128.06L2422.3 1118.14C2421.58 1112.67 2416.56 1108.81 2411.08 1109.53Z" fill="#4CC2FF"/>
<path d="M2680.36 1316.15C2674.88 1316.87 2671.03 1321.9 2671.75 1327.37L2673.05 1337.29C2673.77 1342.76 2669.92 1347.79 2664.44 1348.51L2654.53 1349.81C2649.05 1350.53 2645.2 1355.56 2645.92 1361.03C2646.64 1366.51 2651.66 1370.36 2657.14 1369.64L2667.05 1368.34C2672.53 1367.62 2677.55 1371.47 2678.27 1376.95L2679.58 1386.86C2680.3 1392.34 2685.32 1396.19 2690.8 1395.47C2696.27 1394.75 2700.13 1389.72 2699.41 1384.25L2698.1 1374.33C2697.38 1368.86 2701.24 1363.84 2706.71 1363.12L2716.63 1361.81C2722.1 1361.09 2725.96 1356.07 2725.23 1350.59C2724.51 1345.11 2719.49 1341.26 2714.02 1341.98L2704.1 1343.29C2698.63 1344.01 2693.6 1340.15 2692.88 1334.68L2691.58 1324.76C2690.85 1319.29 2685.83 1315.43 2680.36 1316.15Z" fill="#4CC2FF"/>
<circle cx="2654.25" cy="1117.86" r="10" transform="rotate(-7.5 2654.25 1117.86)" fill="#4CC2FF"/>
<circle cx="2447.63" cy="1387.14" r="10" transform="rotate(-7.5 2447.63 1387.14)" fill="#4CC2FF"/>
</g>
</svg>
